{"title":"616 Paranormal Incident 2013 BRRip AAC x264-SSDD ","uid":9268983,"size":1218349593,"categoryP":"video","categoryS":"movies","magnet":"?xt=urn:btih:ea2362e15cc3308f027dc073a911698d2846bca8&amp;dn=616+Paranormal+Incident+2013+BRRip+AAC+x264-SSDD+&amp;tr=udp%3A%2F%2Ftracker.openbittorrent.com%3A80&amp;tr=udp%3A%2F%2Fopen.demonii.com%3A1337&amp;tr=udp%3A%2F%2Ftracker.coppersurfer.tk%3A6969&amp;tr=udp%3A%2F%2Fexodus.desync.com%3A6969","seeders":1,"leechers":0,"uploader":".BONE.","files":2,"time":1385742911,"description":"When Special Agent Watts and his Investigation Unit are called to the derelict Woodburrow Prison he thinks it's business as usual. But there's nothing usual about Woodburrow. A mysterious ...\n\nIMDB Link - http://www.imdb.com/title/tt2676710/\n\nSource - 616.Paranormal.Incident.2013.720p.BluRay.x264-ENCOUNTERS\n\nGeneral\nComplete name                            : 616 Paranormal Incident 2013 BRRip AAC x264-SSDD.mp4\nFormat                                   : MPEG-4\nFormat profile                           : Base Media\nCodec ID                                 : isom\nFile size                                : 1.13 GiB\nDuration                                 : 1h 23mn\nOverall bit rate mode                    : Variable\nOverall bit rate                         : 1 940 Kbps\n\nVideo\nID                                       : 1\nFormat                                   : AVC\nFormat/Info                              : Advanced Video Codec\nFormat profile                           : &lt;a class=&quot;__cf_email__&quot; href=&quot;/cdn-cgi/l/email-protection&quot; data-cfemail=&quot;e5a8848c8ba5a9d1cbd4&quot;&gt;[email&amp;#160;protected]&lt;/a&gt;&lt;script cf-hash='f9e31' type=&quot;text/javascript&quot;&gt;\n/* &lt;![CDATA[ */!function(){try{var t=&quot;currentScript&quot;in document?document.currentScript:function(){for(var t=document.getElementsByTagName(&quot;script&quot;),e=t.length;e--;)if(t[e].getAttribute(&quot;cf-hash&quot;))return t[e]}();if(t&amp;&amp;t.previousSibling){var e,r,n,i,c=t.previousSibling,a=c.getAttribute(&quot;data-cfemail&quot;);if(a){for(e=&quot;&quot;,r=parseInt(a.substr(0,2),16),n=2;a.length-n;n+=2)i=parseInt(a.substr(n,2),16)^r,e+=String.fromCharCode(i);e=document.createTextNode(e),c.parentNode.replaceChild(e,c)}}}catch(u){}}();/* ]]&gt; */&lt;/script&gt;\nFormat settings, CABAC                   : Yes\nFormat settings, ReFrames                : 4 frames\nCodec ID                                 : avc1\nCodec ID/Info                            : Advanced Video Coding\nDuration                                 : 1h 23mn\nBit rate                                 : 1 852 Kbps\nMaximum bit rate                         : 6 936 Kbps\nWidth                                    : 720 pixels\nHeight                                   : 400 pixels\nDisplay aspect ratio                     : 16:9\nFrame rate mode                          : Constant\nFrame rate                               : 23.976 fps\nColor space                              : YUV\nChroma subsampling                       : 4:2:0\nBit depth                                : 8 bits\nScan type                                : Progressive\nBits/(Pixel*Frame)                       : 0.268\nStream size                              : 1.08 GiB (95%)\nWriting library                          : x264 core 140 r2377 1ca7bb9\n\nAudio\nID                                       : 2\nFormat                                   : AAC\nFormat/Info                              : Advanced Audio Codec\nFormat profile                           : LC\nCodec ID                                 : 40\nDuration                                 : 1h 23mn\nBit rate mode                            : Variable\nBit rate                                 : 84.4 Kbps\nMaximum bit rate                         : 126 Kbps\nChannel(s)                               : 2 channels\nChannel positions                        : Front: L R\nSampling rate                            : 48.0 KHz\nCompression mode                         : Lossy\nStream size                              : 50.5 MiB (4%)","torrent":{"xt":"urn:btih:ea2362e15cc3308f027dc073a911698d2846bca8","amp;dn":"616+Paranormal+Incident+2013+BRRip+AAC+x264-SSDD+","amp;tr":["udp%3A%2F%2Ftracker.openbittorrent.com%3A80","udp%3A%2F%2Fopen.demonii.com%3A1337","udp%3A%2F%2Ftracker.coppersurfer.tk%3A6969","udp%3A%2F%2Fexodus.desync.com%3A6969"],"infoHash":"ea2362e15cc3308f027dc073a911698d2846bca8","infoHashBuffer":{"type":"Buffer","data":[234,35,98,225,92,195,48,143,2,125,192,115,169,17,105,141,40,70,188,168]},"announce":[],"urlList":[]}}